<svg xmlns="http://www.w3.org/2000/svg" viewBox="0 0 600 400" role="img" aria-label="DevSecOps">
  <defs><linearGradient id="sec-bg" x1="0" y1="0" x2="1" y2="1"><stop offset="0%" stop-color="#0d1220"/><stop offset="100%" stop-color="#101f38"/></linearGradient></defs>
  <rect width="600" height="400" fill="url(#sec-bg)"/>
  <text x="40" y="52" fill="#4da3ff" font-family="monospace" font-size="14">~ devsecops · supply chain</text>
  <!-- shield -->
  <path d="M180 100 L260 128 V210 C260 262 224 292 180 306 C136 292 100 262 100 210 V128 Z" fill="#0f1a2e" stroke="#30d158" stroke-width="2.5"/>
  <path d="M148 200 L172 226 L216 172" fill="none" stroke="#30d158" stroke-width="4" stroke-linecap="round" stroke-linejoin="round"/>
  <!-- supply chain links -->
  <g font-family="monospace" font-size="11">
    <rect x="330" y="130" width="100" height="40" rx="6" fill="#0f1a2e" stroke="#4da3ff" stroke-width="1.5"/><text x="348" y="155" fill="#e0e8f4">source</text>
    <rect x="330" y="190" width="100" height="40" rx="6" fill="#0f1a2e" stroke="#4da3ff" stroke-width="1.5"/><text x="348" y="215" fill="#e0e8f4">build/sbom</text>
    <rect x="330" y="250" width="100" height="40" rx="6" fill="#0f1a2e" stroke="#ff9f0a" stroke-width="1.5"/><text x="348" y="275" fill="#e0e8f4">sign/attest</text>
    <line x1="380" y1="170" x2="380" y2="190" stroke="#4da3ff" stroke-width="1.5"/><line x1="380" y1="230" x2="380" y2="250" stroke="#4da3ff" stroke-width="1.5"/>
  </g>
  <text x="40" y="372" fill="#6e7d92" font-family="monospace" font-size="12">sast · sca · sbom · sigstore · policy-as-code</text>
</svg>
